<?xml version="1.0" encoding="UTF-8"?>
<svg id="Layer_2" xmlns="http://www.w3.org/2000/svg" version="1.1" viewBox="0 0 24 24">
  <!-- Generator: Adobe Illustrator 30.3.0, SVG Export Plug-In . SVG Version: 2.1.3 Build 182)  -->
  <defs>
    <style>
      .st0 {
        fill: #f7f9ee;
      }
    </style>
  </defs>
  <path class="st0" d="M16.56,7.32c-2.32,0-4.26,1.7-4.62,3.93h-.48v-5.67h-2.12v-1.32c0-.83-.68-1.51-1.51-1.51h-3.58c-.83,0-1.5.68-1.5,1.51v4.15c0,.83.67,1.51,1.5,1.51h3.58c.83,0,1.51-.68,1.51-1.51v-1.33h.62v9.84h-.62v-1.33c0-.83-.68-1.51-1.51-1.51h-3.58c-.83,0-1.5.68-1.5,1.51v4.15c0,.83.67,1.51,1.5,1.51h3.58c.83,0,1.51-.68,1.51-1.51v-1.32h2.12v-5.67h.48c.36,2.23,2.3,3.93,4.62,3.93,2.59,0,4.69-2.1,4.69-4.68s-2.1-4.68-4.69-4.68ZM18.66,12.75h-1.35v1.35h-1.5v-1.35h-1.34v-1.5h1.34v-1.35h1.5v1.35h1.35v1.5Z"/>
</svg>