<?xml version="1.0" encoding="UTF-8"?>
<svg id="Layer_2" xmlns="http://www.w3.org/2000/svg" version="1.1" viewBox="0 0 24 24">
  <!-- Generator: Adobe Illustrator 30.3.0, SVG Export Plug-In . SVG Version: 2.1.3 Build 182)  -->
  <defs>
    <style>
      .st0 {
        fill: #f7f9ee;
      }
    </style>
  </defs>
  <path class="st0" d="M10.34,13.16c-2.87,0-5.2-2.33-5.2-5.2s2.33-5.2,5.2-5.2,5.2,2.33,5.2,5.2-2.33,5.2-5.2,5.2ZM10.34,4.25c-2.04,0-3.7,1.66-3.7,3.7s1.66,3.7,3.7,3.7,3.7-1.66,3.7-3.7-1.66-3.7-3.7-3.7Z"/>
  <path class="st0" d="M16.45,21.25H3.62c-.36,0-.67-.25-.74-.61-.09-.46-.13-.93-.13-1.4,0-4.19,3.41-7.59,7.59-7.59,1.38,0,2.72.37,3.88,1.07.21.12.34.34.36.58.02.24-.08.48-.26.63-.75.64-1.18,1.56-1.18,2.52,0,1.82,1.48,3.3,3.3,3.3.41,0,.75.34.75.75s-.34.75-.75.75ZM4.27,19.75h8.7c-.82-.86-1.32-2.02-1.32-3.3,0-1.04.34-2.04.96-2.87-.71-.29-1.48-.43-2.27-.43-3.36,0-6.09,2.73-6.09,6.09,0,.17,0,.34.02.51Z"/>
  <path class="st0" d="M16.45,21.25c-2.65,0-4.8-2.15-4.8-4.8,0-1.4.62-2.74,1.7-3.66.87-.74,1.97-1.14,3.1-1.14,2.65,0,4.8,2.15,4.8,4.8,0,2.38-1.71,4.38-4.07,4.74-.24.04-.49.06-.73.06ZM16.45,13.15c-.77,0-1.53.28-2.13.78-.74.63-1.17,1.55-1.17,2.52,0,1.82,1.48,3.3,3.3,3.3.17,0,.34-.02.51-.04,1.62-.25,2.79-1.62,2.79-3.26,0-1.82-1.48-3.3-3.3-3.3Z"/>
  <polygon class="st0" points="16.01 18.49 14.04 16.52 15.1 15.46 16.01 16.37 17.8 14.58 18.86 15.64 16.01 18.49"/>
</svg>