<?xml version="1.0" encoding="UTF-8"?>
<svg id="Layer_2" xmlns="http://www.w3.org/2000/svg" version="1.1" viewBox="0 0 24 24">
  <!-- Generator: Adobe Illustrator 30.3.0, SVG Export Plug-In . SVG Version: 2.1.3 Build 182)  -->
  <defs>
    <style>
      .st0 {
        fill: #f7f9ee;
      }
    </style>
  </defs>
  <path class="st0" d="M8.83,11.22h-4.4c-.93,0-1.68-.76-1.68-1.68v-5.1c0-.93.76-1.68,1.68-1.68h4.4c.93,0,1.68.76,1.68,1.68v5.1c0,.93-.76,1.68-1.68,1.68ZM4.43,4.25c-.1,0-.18.08-.18.18v5.1c0,.1.08.18.18.18h4.4c.1,0,.18-.08.18-.18v-5.1c0-.1-.08-.18-.18-.18h-4.4Z"/>
  <path class="st0" d="M19.57,16.23h-4.4c-.93,0-1.68-.76-1.68-1.68v-5.1c0-.93.76-1.68,1.68-1.68h4.4c.93,0,1.68.76,1.68,1.68v5.1c0,.93-.76,1.68-1.68,1.68ZM15.17,9.27c-.1,0-.18.08-.18.18v5.1c0,.1.08.18.18.18h4.4c.1,0,.18-.08.18-.18v-5.1c0-.1-.08-.18-.18-.18h-4.4Z"/>
  <path class="st0" d="M8.83,21.25h-4.4c-.93,0-1.68-.76-1.68-1.68v-5.1c0-.93.76-1.68,1.68-1.68h4.4c.93,0,1.68.76,1.68,1.68v5.1c0,.93-.76,1.68-1.68,1.68ZM4.43,14.28c-.1,0-.18.08-.18.18v5.1c0,.1.08.18.18.18h4.4c.1,0,.18-.08.18-.18v-5.1c0-.1-.08-.18-.18-.18h-4.4Z"/>
  <polygon class="st0" points="12.88 17.77 9.02 17.77 9.02 16.27 11.38 16.27 11.38 7.73 9.02 7.73 9.02 6.23 12.88 6.23 12.88 17.77"/>
  <rect class="st0" x="11.38" y="11.25" width="3.61" height="1.5"/>
</svg>