<?xml version="1.0" encoding="UTF-8"?>
<svg id="Layer_2" xmlns="http://www.w3.org/2000/svg" version="1.1" viewBox="0 0 24 24">
  <!-- Generator: Adobe Illustrator 30.3.0, SVG Export Plug-In . SVG Version: 2.1.3 Build 182)  -->
  <defs>
    <style>
      .st0 {
        fill: #f7f9ee;
      }
    </style>
  </defs>
  <path class="st0" d="M12,21.25c-.92,0-1.84-.24-2.67-.71l-3.39-1.96c-1.64-.95-2.67-2.72-2.67-4.62v-3.92c0-1.9,1.02-3.67,2.67-4.62l3.39-1.96c1.64-.95,3.69-.95,5.33,0l3.39,1.96c1.64.95,2.67,2.72,2.67,4.62v3.92c0,1.9-1.02,3.67-2.67,4.62l-3.39,1.96c-.82.47-1.74.71-2.67.71ZM12,4.25c-.66,0-1.32.17-1.92.51l-3.39,1.96c-1.18.68-1.92,1.95-1.92,3.32v3.92c0,1.36.73,2.64,1.92,3.32l3.39,1.96c1.18.68,2.65.68,3.83,0l3.39-1.96c1.18-.68,1.92-1.95,1.92-3.32v-3.92c0-1.36-.73-2.64-1.92-3.32l-3.39-1.96c-.59-.34-1.25-.51-1.92-.51Z"/>
  <path class="st0" d="M10.56,15.9c-.27,0-.53-.07-.78-.21-.49-.28-.78-.79-.78-1.35v-4.67c0-.56.29-1.07.78-1.35.49-.28,1.07-.28,1.56,0l4.05,2.34c.49.28.78.79.78,1.35s-.29,1.07-.78,1.35l-4.05,2.34c-.24.14-.51.21-.78.21ZM10.59,9.61l-.09,4.72,4.13-2.29v-.1l-4.05-2.34Z"/>
</svg>