<?xml version="1.0" encoding="UTF-8"?>
<svg id="Layer_2" xmlns="http://www.w3.org/2000/svg" version="1.1" viewBox="0 0 24 24">
  <!-- Generator: Adobe Illustrator 30.3.0, SVG Export Plug-In . SVG Version: 2.1.3 Build 182)  -->
  <defs>
    <style>
      .st0 {
        fill: #f7f9ee;
      }
    </style>
  </defs>
  <path class="st0" d="M6.3,20.35l-3.55-2.04v-4.11l3.55-2.04,3.55,2.04v4.11l-3.55,2.04ZM4.25,17.44l2.05,1.18,2.05-1.18v-2.37l-2.05-1.18-2.05,1.18v2.37Z"/>
  <path class="st0" d="M12,11.62l-3.55-2.05v-4.09l3.55-2.05,3.55,2.05v4.09l-3.55,2.05ZM9.95,8.7l2.05,1.19,2.05-1.19v-2.36l-2.05-1.19-2.05,1.19v2.36Z"/>
  <path class="st0" d="M17.7,20.35l-3.55-2.04v-4.11l3.55-2.04,3.55,2.04v4.11l-3.55,2.04ZM15.65,17.44l2.05,1.18,2.05-1.18v-2.37l-2.05-1.18-2.05,1.18v2.37Z"/>
  <path class="st0" d="M12,20.58l-4.54-2.63.89-.51v-2.37l-2.05-1.18-1.05.59v-5.59l4.7-2.72v2.53l2.05,1.19,2.05-1.19v-2.53l4.7,2.72v5.59l-1.05-.59-2.05,1.18v2.37l.89.51-4.54,2.63ZM9.85,17.6l2.15,1.25,2.15-1.25v-3.4l3.1-1.78v-2.66l-1.7-.98v.79l-3.55,2.05-3.55-2.05v-.79l-1.7.98v2.66l3.1,1.78v3.4Z"/>
</svg>