<?xml version="1.0" encoding="UTF-8"?>
<svg id="Layer_2" xmlns="http://www.w3.org/2000/svg" version="1.1" viewBox="0 0 24 24">
  <!-- Generator: Adobe Illustrator 30.3.0, SVG Export Plug-In . SVG Version: 2.1.3 Build 182)  -->
  <defs>
    <style>
      .st0 {
        fill: #f7f9ee;
      }
    </style>
  </defs>
  <path class="st0" d="M10.75,19.63c-.92,0-1.84-.23-2.66-.7l-2.67-1.54c-1.64-.95-2.67-2.72-2.67-4.62v-3.08c0-1.9,1.02-3.67,2.67-4.62l2.67-1.54c1.64-.95,3.69-.95,5.33,0l2.67,1.54c1.64.95,2.67,2.72,2.67,4.62v3.08c0,.32-.03.65-.09.99l-.15.82-.8-.23c-.21-.06-.44-.09-.66-.09-1.54,0-2.8,1.26-2.8,2.8,0,.24.03.47.09.68l.16.57-1.09.62c-.82.47-1.74.7-2.66.7ZM10.75,4.32c-.66,0-1.32.17-1.92.51l-2.67,1.54c-1.18.68-1.92,1.95-1.92,3.32v3.08c0,1.37.73,2.64,1.92,3.32l2.67,1.54c1.18.67,2.65.67,3.83,0l.11-.06c-.02-.17-.03-.33-.03-.5,0-2.44,2.08-4.43,4.5-4.3v-3.07c0-1.37-.73-2.64-1.92-3.32l-2.67-1.54c-.59-.34-1.25-.51-1.92-.51Z"/>
  <path class="st0" d="M9.51,14.78c-.27,0-.54-.07-.78-.21-.49-.28-.78-.79-.78-1.35v-4c0-.56.29-1.07.78-1.35.49-.28,1.07-.28,1.56,0l3.46,2c.49.28.78.79.78,1.35s-.29,1.07-.78,1.35l-3.46,2c-.24.14-.51.21-.78.21ZM9.54,9.18l-.09,4.04,3.55-1.95v-.1l-3.46-2Z"/>
  <g>
    <rect class="st0" x="16.3" y="15.27" width="1.5" height="3.59"/>
    <rect class="st0" x="15.25" y="16.31" width="3.59" height="1.5"/>
  </g>
  <path class="st0" d="M17.05,21.36c-1.17,0-2.27-.46-3.08-1.3-.49-.52-.84-1.1-1.04-1.74-.02-.08-.04-.16-.05-.23-.09-.33-.13-.67-.13-1.03,0-2.37,1.93-4.3,4.3-4.3.37,0,.73.05,1.08.15l-.1.75.2-.72c.85.24,1.61.74,2.17,1.44.62.74.94,1.67.94,2.68,0,2.37-1.93,4.3-4.3,4.3ZM14.37,17.89v.06c.12.35.36.74.68,1.08.52.54,1.23.84,2,.84,1.54,0,2.8-1.26,2.8-2.8,0-.66-.21-1.25-.61-1.73-.37-.46-.87-.8-1.41-.95l-.12-.03c-.21-.06-.44-.09-.66-.09-1.54,0-2.8,1.26-2.8,2.8,0,.24.03.47.09.68l.03.14Z"/>
</svg>