<?xml version="1.0" encoding="UTF-8"?>
<svg id="Layer_2" xmlns="http://www.w3.org/2000/svg" version="1.1" viewBox="0 0 24 24">
  <!-- Generator: Adobe Illustrator 30.3.0, SVG Export Plug-In . SVG Version: 2.1.3 Build 182)  -->
  <defs>
    <style>
      .st0 {
        fill: none;
        stroke: #f8faef;
        stroke-miterlimit: 10;
        stroke-width: 1.5px;
      }
    </style>
  </defs>
  <path class="st0" d="M19.98,13.96v-3.92c0-1.64-.87-3.15-2.29-3.97l-3.39-1.96c-1.42-.82-3.16-.82-4.58,0l-3.39,1.96c-1.42.82-2.29,2.33-2.29,3.97v3.92c0,1.64.87,3.15,2.29,3.97l3.39,1.96c1.42.82,3.16.82,4.58,0l3.39-1.96c1.42-.82,2.29-2.33,2.29-3.97Z"/>
  <path class="st0" d="M15.01,11.3l-4.05-2.34c-.54-.31-1.21.08-1.21.7v4.67c0,.62.67,1.01,1.21.7l4.05-2.34c.54-.31.54-1.09,0-1.4Z"/>
</svg>