<?xml version="1.0" encoding="UTF-8"?>
<svg id="Layer_2" xmlns="http://www.w3.org/2000/svg" version="1.1" viewBox="0 0 24 24">
  <!-- Generator: Adobe Illustrator 30.3.0, SVG Export Plug-In . SVG Version: 2.1.3 Build 182)  -->
  <defs>
    <style>
      .st0 {
        stroke-linecap: round;
        stroke-linejoin: round;
      }

      .st0, .st1, .st2 {
        fill: none;
        stroke: #f8faef;
        stroke-width: 1.5px;
      }

      .st1 {
        stroke-linecap: square;
      }

      .st1, .st2 {
        stroke-miterlimit: 10;
      }
    </style>
  </defs>
  <circle class="st2" cx="10.34" cy="7.95" r="4.45"/>
  <path class="st0" d="M16.45,20.5H3.62c-.08-.41-.12-.83-.12-1.26,0-3.78,3.07-6.84,6.84-6.84,1.28,0,2.48.35,3.5.96-.88.75-1.44,1.85-1.44,3.09,0,2.24,1.82,4.05,4.05,4.05Z"/>
  <path class="st2" d="M20.5,16.45c0,2.03-1.48,3.7-3.43,4-.2.03-.41.05-.62.05-2.23,0-4.05-1.81-4.05-4.05,0-1.24.56-2.34,1.44-3.09.7-.59,1.62-.96,2.61-.96,2.24,0,4.05,1.82,4.05,4.05Z"/>
  <polyline class="st1" points="15.1 16.52 16.01 17.43 17.8 15.64"/>
</svg>