<?xml version="1.0" encoding="UTF-8"?>
<svg id="Layer_2" xmlns="http://www.w3.org/2000/svg" version="1.1" viewBox="0 0 24 24">
  <!-- Generator: Adobe Illustrator 30.3.0, SVG Export Plug-In . SVG Version: 2.1.3 Build 182)  -->
  <defs>
    <style>
      .st0 {
        fill: none;
        stroke: #f8faef;
        stroke-linecap: square;
        stroke-miterlimit: 10;
        stroke-width: 1.5px;
      }
    </style>
  </defs>
  <polyline class="st0" points="13.76 15.53 14.9 16.67 17.14 14.43"/>
  <path class="st0" d="M20.5,15.45c0,1.92-1.06,3.58-2.64,4.43-.5.28-1.05.47-1.64.56-.25.04-.51.06-.77.06-2.78,0-5.05-2.26-5.05-5.05,0-1.55.69-2.92,1.79-3.86.88-.73,2.02-1.19,3.26-1.19.93,0,1.8.25,2.55.7,1.5.87,2.5,2.5,2.5,4.35Z"/>
  <path class="st0" d="M18,4.39v6.71c-.75-.45-1.62-.7-2.55-.7-1.24,0-2.38.46-3.26,1.19-1.1.94-1.79,2.31-1.79,3.86,0,2.79,2.27,5.05,5.05,5.05H4.65c-.64,0-1.15-.51-1.15-1.15V4.39c0-.64.51-1.15,1.15-1.15h12.2c.64,0,1.15.51,1.15,1.15Z"/>
  <line class="st0" x1="7.58" y1="6.98" x2="13.92" y2="6.98"/>
  <line class="st0" x1="7.58" y1="11.87" x2="8.35" y2="11.87"/>
</svg>