<svg width="24" height="24" viewBox="0 0 24 24" fill="none" xmlns="http://www.w3.org/2000/svg">
<path d="M6.3 19.57L2.75 17.53V13.42L6.3 11.38L9.85 13.42V14.42L9.66 14.63C9.17 15.19 8.9 15.91 8.9 16.65C8.9 16.9 8.93 17.15 8.99 17.39L9.12 17.94L6.3 19.56V19.57ZM4.25 16.66L6.3 17.84L7.43 17.19C7.41 17.01 7.4 16.84 7.4 16.66C7.4 15.77 7.66 14.91 8.14 14.17L6.3 13.11L4.25 14.29V16.66Z" fill="#F7F9EE"/>
<path d="M12 10.84L8.45 8.78999V4.69999L12 2.64999L15.55 4.69999V8.78999L12 10.84ZM9.95 7.91999L12 9.10999L14.05 7.91999V5.55999L12 4.36999L9.95 5.55999V7.91999Z" fill="#F7F9EE"/>
<path d="M17.7 19.57L14.88 17.95L15.01 17.4C15.07 17.15 15.1 16.9 15.1 16.66C15.1 15.91 14.83 15.19 14.34 14.64L14.15 14.43V13.43L17.7 11.39L21.25 13.43V17.54L17.7 19.58V19.57ZM16.57 17.18L17.7 17.83L19.75 16.65V14.28L17.7 13.1L15.86 14.16C16.34 14.9 16.6 15.76 16.6 16.65C16.6 16.83 16.59 17.01 16.57 17.18Z" fill="#F7F9EE"/>
<path d="M15.65 16.12L14.34 14.62C13.75 13.94 12.9 13.56 12 13.56C11.1 13.56 10.26 13.95 9.66 14.62L8.35 16.12V14.28L6.3 13.1L5.25 13.69V8.09999L9.95 5.37999V7.90999L12 9.09999L14.05 7.90999V5.37999L18.75 8.09999V13.69L17.7 13.1L15.65 14.28V16.12ZM12 12.06C13.03 12.06 14.02 12.41 14.82 13.03L17.25 11.63V8.96999L15.55 7.98999V8.77999L12 10.83L8.45 8.77999V7.98999L6.75 8.96999V11.63L9.18 13.03C9.98 12.41 10.97 12.06 12 12.06Z" fill="#F7F9EE"/>
<path d="M12 21.25C9.86999 21.25 8.02999 19.81 7.52999 17.75C7.43999 17.39 7.39999 17.02 7.39999 16.65C7.39999 15.54 7.79999 14.47 8.53999 13.63C9.41999 12.63 10.68 12.06 12 12.06C13.32 12.06 14.59 12.63 15.46 13.64C16.19 14.47 16.6 15.54 16.6 16.65C16.6 17.02 16.56 17.39 16.47 17.75C15.97 19.81 14.13 21.25 12 21.25ZM12 13.56C11.11 13.56 10.26 13.95 9.65999 14.62C9.16999 15.18 8.89999 15.9 8.89999 16.65C8.89999 16.9 8.92999 17.15 8.98999 17.39C9.31999 18.75 10.59 19.75 12 19.75C13.41 19.75 14.68 18.76 15.01 17.39C15.07 17.15 15.1 16.9 15.1 16.65C15.1 15.9 14.83 15.18 14.34 14.63C13.75 13.95 12.89 13.56 12 13.56Z" fill="#F7F9EE"/>
<path d="M11.3262 14.9226L10.2655 15.9832L12.6768 18.3945L13.7374 17.3338L11.3262 14.9226Z" fill="#F7F9EE"/>
<path d="M12.6838 14.9226L10.2726 17.3338L11.3332 18.3945L13.7445 15.9833L12.6838 14.9226Z" fill="#F7F9EE"/>
</svg>
