<?xml version="1.0" encoding="UTF-8"?>
<svg id="Layer_2" xmlns="http://www.w3.org/2000/svg" version="1.1" viewBox="0 0 24 24">
  <!-- Generator: Adobe Illustrator 30.3.0, SVG Export Plug-In . SVG Version: 2.1.3 Build 182)  -->
  <defs>
    <style>
      .st0 {
        stroke-linecap: square;
      }

      .st0, .st1 {
        fill: none;
        stroke: #f8faef;
        stroke-miterlimit: 10;
        stroke-width: 1.5px;
      }
    </style>
  </defs>
  <g>
    <path class="st1" d="M9.1,14.13c-.59.67-.95,1.55-.95,2.52,0,.32.04.63.11.92l-1.96,1.13-2.8-1.61v-3.24l2.5-1.44.3-.17,2.8,1.61v.28Z"/>
    <polygon class="st1" points="14.8 5.12 14.8 8.35 12 9.97 9.2 8.35 9.2 5.12 12 3.5 14.8 5.12"/>
    <path class="st1" d="M20.5,13.85v3.24l-2.8,1.61-1.96-1.13c.07-.29.11-.6.11-.92,0-.97-.36-1.85-.95-2.52v-.28l2.8-1.61.3.17,2.5,1.44Z"/>
    <path class="st1" d="M18,8.54v3.87l-.3-.17-2.8,1.61v.28c-.71-.81-1.75-1.32-2.9-1.32s-2.19.51-2.9,1.32v-.28l-2.8-1.61-.3.17v-3.87l3.2-1.85v1.66l2.8,1.62,2.8-1.62v-1.66l3.2,1.85Z"/>
  </g>
  <path class="st1" d="M15.85,16.65c0,.32-.04.63-.11.92-.41,1.68-1.94,2.93-3.74,2.93s-3.33-1.25-3.74-2.93c-.07-.29-.11-.6-.11-.92,0-.97.36-1.85.95-2.52.71-.81,1.75-1.32,2.9-1.32s2.19.51,2.9,1.32c.59.67.95,1.55.95,2.52Z"/>
  <g>
    <line class="st0" x1="12" y1="15.7" x2="12" y2="17.61"/>
    <line class="st0" x1="12.95" y1="16.65" x2="11.05" y2="16.65"/>
  </g>
</svg>