<svg width="24" height="24" viewBox="0 0 24 24" fill="none" xmlns="http://www.w3.org/2000/svg">
<path d="M15.6154 9.98475L14.5547 11.0454L17.5246 14.0153L18.5853 12.9546L15.6154 9.98475Z" fill="#F7F9EE"/>
<path d="M17.5246 9.98474L14.5547 12.9546L15.6154 14.0152L18.5853 11.0454L17.5246 9.98474Z" fill="#F7F9EE"/>
<path d="M7.84 21.25H4.26C3.43 21.25 2.75 20.57 2.75 19.74V15.59C2.75 14.76 3.43 14.08 4.26 14.08H7.84C8.67 14.08 9.35 14.76 9.35 15.59V19.74C9.35 20.57 8.67 21.25 7.84 21.25ZM4.26 15.58V19.74H7.84V15.59H4.25L4.26 15.58Z" fill="#F7F9EE"/>
<path d="M7.84 9.92H4.26C3.43 9.92 2.75 9.24 2.75 8.41V4.26C2.75 3.43 3.43 2.75 4.26 2.75H7.84C8.67 2.75 9.35 3.43 9.35 4.26V8.41C9.35 9.24 8.67 9.92 7.84 9.92ZM4.26 4.25V8.41H7.84V4.26H4.25L4.26 4.25Z" fill="#F7F9EE"/>
<path d="M11.46 18.42H7.85001V16.92H9.96001V7.08H7.85001V5.58H11.46V18.42Z" fill="#F7F9EE"/>
<path d="M13.39 11.25H9.96001V12.75H13.39V11.25Z" fill="#F7F9EE"/>
<path d="M16.57 16.68C13.99 16.68 11.89 14.58 11.89 12C11.89 9.42001 13.99 7.32001 16.57 7.32001C19.15 7.32001 21.25 9.42001 21.25 12C21.25 14.58 19.15 16.68 16.57 16.68ZM16.57 8.82001C14.82 8.82001 13.39 10.25 13.39 12C13.39 13.75 14.82 15.18 16.57 15.18C18.32 15.18 19.75 13.75 19.75 12C19.75 10.25 18.32 8.82001 16.57 8.82001Z" fill="#F7F9EE"/>
</svg>
