<?xml version="1.0" encoding="UTF-8"?>
<svg id="Layer_2" xmlns="http://www.w3.org/2000/svg" version="1.1" viewBox="0 0 24 24">
  <!-- Generator: Adobe Illustrator 30.3.0, SVG Export Plug-In . SVG Version: 2.1.3 Build 182)  -->
  <defs>
    <style>
      .st0 {
        fill: #f7f9ee;
      }
    </style>
  </defs>
  <path class="st0" d="M12,19.55c-3.77,0-8.08-2.28-9.23-7.38l-.04-.17.04-.17c1.15-5.1,5.47-7.38,9.23-7.38s8.08,2.28,9.23,7.38l.04.17-.04.17c-1.15,5.1-5.47,7.38-9.23,7.38ZM4.27,12c1.09,4.46,4.83,6.05,7.73,6.05s6.64-1.59,7.73-6.05c-1.09-4.46-4.83-6.05-7.73-6.05s-6.64,1.59-7.73,6.05Z"/>
  <path class="st0" d="M12,15.92c-2.16,0-3.92-1.76-3.92-3.92s1.76-3.92,3.92-3.92,3.92,1.76,3.92,3.92-1.76,3.92-3.92,3.92ZM12,9.58c-1.33,0-2.42,1.08-2.42,2.42s1.08,2.42,2.42,2.42,2.42-1.08,2.42-2.42-1.08-2.42-2.42-2.42Z"/>
</svg>