<svg width="24" height="24" viewBox="0 0 24 24" fill="none" xmlns="http://www.w3.org/2000/svg">
<path d="M10.75 19.63C9.83 19.63 8.91 19.4 8.09 18.93L5.42 17.39C3.78 16.44 2.75 14.67 2.75 12.77V9.69C2.75 7.79 3.77 6.02001 5.42 5.07001L8.09 3.53C9.73 2.58 11.78 2.58 13.42 3.53L16.09 5.07001C17.73 6.02001 18.76 7.79 18.76 9.69V12.77C18.76 13.09 18.73 13.42 18.67 13.76L18.52 14.58L17.72 14.35C17.51 14.29 17.28 14.26 17.06 14.26C15.52 14.26 14.26 15.52 14.26 17.06C14.26 17.3 14.29 17.53 14.35 17.74L14.51 18.31L13.42 18.93C12.6 19.4 11.68 19.63 10.76 19.63H10.75ZM10.75 4.32001C10.09 4.32001 9.43 4.49 8.83 4.83L6.16 6.37C4.98 7.05 4.24 8.32 4.24 9.69V12.77C4.24 14.14 4.97 15.41 6.16 16.09L8.83 17.63C10.01 18.3 11.48 18.3 12.66 17.63L12.77 17.57C12.75 17.4 12.74 17.24 12.74 17.07C12.74 14.63 14.82 12.64 17.24 12.77V9.7C17.24 8.33 16.51 7.06001 15.32 6.38001L12.65 4.84001C12.06 4.50001 11.4 4.33 10.73 4.33L10.75 4.32001Z" fill="#F7F9EE"/>
<path d="M9.51 14.78C9.24 14.78 8.97 14.71 8.73 14.57C8.24 14.29 7.95 13.78 7.95 13.22V9.22C7.95 8.66 8.24 8.15 8.73 7.87C9.22 7.59 9.8 7.59 10.29 7.87L13.75 9.87C14.24 10.15 14.53 10.66 14.53 11.22C14.53 11.78 14.24 12.29 13.75 12.57L10.29 14.57C10.05 14.71 9.78 14.78 9.51 14.78ZM9.54 9.18L9.45 13.22L13 11.27V11.17L9.54 9.17V9.18Z" fill="#F7F9EE"/>
<path d="M16.3096 15.2619L15.249 16.3225L17.7875 18.8611L18.8481 17.8004L16.3096 15.2619Z" fill="#F7F9EE"/>
<path d="M17.7804 15.2619L15.2419 17.8004L16.3025 18.861L18.8411 16.3225L17.7804 15.2619Z" fill="#F7F9EE"/>
<path d="M17.05 21.36C15.88 21.36 14.78 20.9 13.97 20.06C13.48 19.54 13.13 18.96 12.93 18.32C12.91 18.24 12.89 18.16 12.88 18.09C12.79 17.76 12.75 17.42 12.75 17.06C12.75 14.69 14.68 12.76 17.05 12.76C17.42 12.76 17.78 12.81 18.13 12.91L18.03 13.66L18.23 12.94C19.08 13.18 19.84 13.68 20.4 14.38C21.02 15.12 21.34 16.05 21.34 17.06C21.34 19.43 19.41 21.36 17.04 21.36H17.05ZM14.37 17.89V17.95C14.49 18.3 14.73 18.69 15.05 19.03C15.57 19.57 16.28 19.87 17.05 19.87C18.59 19.87 19.85 18.61 19.85 17.07C19.85 16.41 19.64 15.82 19.24 15.34C18.87 14.88 18.37 14.54 17.83 14.39L17.71 14.36C17.5 14.3 17.27 14.27 17.05 14.27C15.51 14.27 14.25 15.53 14.25 17.07C14.25 17.31 14.28 17.54 14.34 17.75L14.37 17.89Z" fill="#F7F9EE"/>
</svg>
