<?xml version="1.0" encoding="UTF-8"?>
<svg id="Layer_2" xmlns="http://www.w3.org/2000/svg" version="1.1" viewBox="0 0 24 24">
  <!-- Generator: Adobe Illustrator 30.3.0, SVG Export Plug-In . SVG Version: 2.1.3 Build 182)  -->
  <defs>
    <style>
      .st0 {
        fill: #f7f9ee;
      }
    </style>
  </defs>
  <g>
    <rect class="st0" x="15.82" y="9.9" width="1.5" height="4.2"/>
    <rect class="st0" x="14.47" y="11.25" width="4.2" height="1.5"/>
  </g>
  <path class="st0" d="M7.84,21.25h-3.58c-.83,0-1.51-.68-1.51-1.51v-4.15c0-.83.68-1.51,1.51-1.51h3.58c.83,0,1.51.68,1.51,1.51v4.15c0,.83-.68,1.51-1.51,1.51ZM4.26,15.58v4.16s3.58,0,3.58,0c0,0,0,0,0,0v-4.15h-3.59Z"/>
  <path class="st0" d="M7.84,9.92h-3.58c-.83,0-1.51-.68-1.51-1.51v-4.15c0-.83.68-1.51,1.51-1.51h3.58c.83,0,1.51.68,1.51,1.51v4.15c0,.83-.68,1.51-1.51,1.51ZM4.26,4.25v4.16s3.58,0,3.58,0c0,0,0,0,0,0v-4.15h-3.59Z"/>
  <polygon class="st0" points="11.46 18.42 7.85 18.42 7.85 16.92 9.96 16.92 9.96 7.08 7.85 7.08 7.85 5.58 11.46 5.58 11.46 18.42"/>
  <rect class="st0" x="9.96" y="11.25" width="3.43" height="1.5"/>
  <path class="st0" d="M16.57,16.68c-2.58,0-4.68-2.1-4.68-4.68s2.1-4.68,4.68-4.68,4.68,2.1,4.68,4.68-2.1,4.68-4.68,4.68ZM16.57,8.82c-1.75,0-3.18,1.43-3.18,3.18s1.43,3.18,3.18,3.18,3.18-1.43,3.18-3.18-1.43-3.18-3.18-3.18Z"/>
</svg>