<?xml version="1.0" encoding="UTF-8"?>
<svg id="Layer_2" xmlns="http://www.w3.org/2000/svg" version="1.1" viewBox="0 0 24 24">
  <!-- Generator: Adobe Illustrator 30.3.0, SVG Export Plug-In . SVG Version: 2.1.3 Build 182)  -->
  <defs>
    <style>
      .st0 {
        fill: #f7f9ee;
      }
    </style>
  </defs>
  <polygon class="st0" points="14.9 17.73 12.7 15.53 13.76 14.47 14.9 15.61 17.14 13.37 18.2 14.44 14.9 17.73"/>
  <path class="st0" d="M15.45,21.25c-3.2,0-5.8-2.6-5.8-5.8,0-1.7.75-3.32,2.05-4.43,1.89-1.57,4.66-1.78,6.68-.56,1.76,1.02,2.86,2.94,2.86,4.99s-1.16,4.08-3.03,5.09c-.57.32-1.21.54-1.88.64-.28.05-.58.07-.88.07ZM15.45,11.15c-1,0-1.99.36-2.78,1.02-.98.83-1.52,2-1.52,3.28,0,2.37,1.93,4.3,4.3,4.3.22,0,.44-.02.65-.05.5-.08.97-.24,1.39-.47,1.4-.75,2.26-2.2,2.26-3.78s-.81-2.94-2.13-3.7c-.66-.39-1.41-.6-2.17-.6Z"/>
  <path class="st0" d="M15.45,21.25H4.65c-1.05,0-1.9-.85-1.9-1.9V4.39c0-1.05.85-1.9,1.9-1.9h12.2c1.05,0,1.9.85,1.9,1.9v8.03l-1.14-.68c-1.49-.89-3.55-.73-4.95.42-.98.83-1.52,2-1.52,3.28,0,2.37,1.93,4.3,4.3,4.3v1.5ZM4.65,3.99c-.22,0-.4.18-.4.4v14.96c0,.22.18.4.4.4h6.91c-1.17-1.06-1.91-2.6-1.91-4.3s.75-3.32,2.05-4.43c1.55-1.29,3.71-1.69,5.55-1.08v-5.55c0-.22-.18-.4-.4-.4H4.65Z"/>
  <rect class="st0" x="6.83" y="6.23" width="7.84" height="1.5"/>
  <rect class="st0" x="6.83" y="11.12" width="2.27" height="1.5"/>
</svg>