<?xml version="1.0" encoding="UTF-8"?>
<svg id="Layer_2" xmlns="http://www.w3.org/2000/svg" version="1.1" viewBox="0 0 24 24">
  <!-- Generator: Adobe Illustrator 30.3.0, SVG Export Plug-In . SVG Version: 2.1.3 Build 182)  -->
  <defs>
    <style>
      .st0 {
        fill: none;
        stroke: #f8faef;
        stroke-miterlimit: 10;
        stroke-width: 1.5px;
      }
    </style>
  </defs>
  <polygon class="st0" points="9.1 14.63 9.1 17.87 8.96 17.95 6.3 19.49 3.5 17.87 3.5 14.63 6 13.19 6.3 13.02 9.1 14.63"/>
  <polygon class="st0" points="14.8 5.9 14.8 9.13 12 10.75 9.2 9.13 9.2 5.9 12 4.29 14.8 5.9"/>
  <polygon class="st0" points="20.5 14.63 20.5 17.87 17.7 19.49 15.04 17.95 14.9 17.87 14.9 14.63 17.7 13.02 18 13.19 20.5 14.63"/>
  <polygon class="st0" points="18 9.32 18 13.19 17.7 13.02 14.9 14.63 14.9 17.87 15.04 17.95 12 19.71 8.96 17.95 9.1 17.87 9.1 14.63 6.3 13.02 6 13.19 6 9.32 9.2 7.48 9.2 9.13 12 10.75 14.8 9.13 14.8 7.48 18 9.32"/>
</svg>