<svg width="24" height="24" viewBox="0 0 24 24" fill="none" xmlns="http://www.w3.org/2000/svg">
<path d="M14.1368 13.1991L13.0762 14.2598L16.7602 17.9438L17.8209 16.8831L14.1368 13.1991Z" fill="#F7F9EE"/>
<path d="M16.7602 13.2062L13.0762 16.8902L14.1368 17.9509L17.8209 14.2668L16.7602 13.2062Z" fill="#F7F9EE"/>
<path d="M15.45 21.38C12.25 21.38 9.64999 18.78 9.64999 15.58C9.64999 13.88 10.4 12.26 11.7 11.15C13.59 9.57999 16.36 9.38 18.38 10.59C20.14 11.61 21.24 13.53 21.24 15.58C21.24 17.63 20.08 19.66 18.2 20.67C17.63 20.99 16.99 21.21 16.32 21.31C16.04 21.35 15.74 21.38 15.44 21.38H15.45ZM15.45 11.28C14.45 11.28 13.46 11.64 12.67 12.3C11.69 13.13 11.15 14.3 11.15 15.58C11.15 17.95 13.08 19.88 15.45 19.88C15.67 19.88 15.89 19.86 16.1 19.83C16.6 19.75 17.07 19.6 17.49 19.36C18.89 18.61 19.75 17.16 19.75 15.58C19.75 14 18.94 12.64 17.62 11.88C16.96 11.49 16.22 11.28 15.45 11.28Z" fill="#F7F9EE"/>
<path d="M15.45 21.38H4.65C3.6 21.38 2.75 20.53 2.75 19.48V4.52C2.75 3.47 3.6 2.62 4.65 2.62H16.85C17.9 2.62 18.75 3.47 18.75 4.52V12.55L17.61 11.87C16.12 10.97 14.06 11.14 12.66 12.29C11.68 13.12 11.14 14.29 11.14 15.57C11.14 17.94 13.07 19.87 15.44 19.87V21.37L15.45 21.38ZM4.65 4.12C4.43 4.12 4.25 4.3 4.25 4.52V19.48C4.25 19.7 4.43 19.88 4.65 19.88H11.56C10.39 18.82 9.65 17.28 9.65 15.58C9.65 13.88 10.4 12.26 11.7 11.15C13.26 9.85999 15.41 9.45999 17.25 10.07V4.52C17.25 4.3 17.07 4.12 16.85 4.12H4.65Z" fill="#F7F9EE"/>
<path d="M14.67 6.36H6.83V7.86H14.67V6.36Z" fill="#F7F9EE"/>
<path d="M9.1 11.25H6.83V12.75H9.1V11.25Z" fill="#F7F9EE"/>
</svg>
