<svg xmlns="http://www.w3.org/2000/svg" width="18.397" height="15.997" fill="none"><path d="M 1.624 0.018 C 1.632 0.029 1.672 0.079 1.711 0.127 C 1.992 0.462 2.204 1.006 2.318 1.692 C 2.393 2.143 2.397 2.285 2.397 4.003 L 2.397 5.604 L 1.628 5.604 C 0.925 5.604 0.844 5.6 0.706 5.572 C 0.489 5.526 0.265 5.403 0.114 5.245 C -0.006 5.118 -0.002 5.11 0.006 5.495 C 0.015 5.813 0.018 5.848 0.064 6.021 C 0.138 6.295 0.239 6.499 0.392 6.682 C 0.6 6.932 0.811 7.072 1.113 7.165 C 1.177 7.184 1.313 7.191 1.795 7.195 L 2.397 7.204 L 2.397 8.799 L 1.549 8.793 L 0.697 8.788 L 0.55 8.729 C 0.375 8.659 0.296 8.608 0.125 8.455 L 0 8.343 L 0.007 8.694 C 0.017 9.02 0.018 9.057 0.064 9.222 C 0.224 9.807 0.611 10.225 1.12 10.361 C 1.247 10.396 1.297 10.398 1.829 10.405 L 2.397 10.412 L 2.397 12.061 C 2.397 13.056 2.392 13.79 2.382 13.915 C 2.373 14.029 2.344 14.242 2.318 14.391 C 2.198 15.078 1.983 15.595 1.674 15.929 L 1.612 15.997 L 4.722 15.997 C 6.582 15.997 7.973 15.99 8.177 15.981 C 8.536 15.962 9.336 15.883 9.516 15.845 C 9.573 15.834 9.68 15.817 9.75 15.806 C 9.899 15.784 10.146 15.733 10.501 15.642 C 11.001 15.517 11.457 15.361 11.904 15.162 C 12.044 15.1 12.445 14.895 12.552 14.831 C 12.609 14.798 12.677 14.758 12.703 14.745 C 12.774 14.706 12.894 14.629 13.069 14.504 C 13.155 14.441 13.242 14.38 13.26 14.368 C 13.337 14.316 13.604 14.093 13.725 13.981 C 14.187 13.556 14.574 13.083 14.873 12.578 C 14.916 12.504 14.971 12.412 14.995 12.373 C 15.056 12.27 15.306 11.755 15.33 11.678 C 15.341 11.643 15.355 11.606 15.363 11.599 C 15.411 11.536 15.687 10.668 15.72 10.479 C 15.731 10.418 15.736 10.409 15.782 10.399 C 15.812 10.394 16.24 10.394 16.735 10.398 C 17.725 10.405 17.725 10.405 17.944 10.506 C 18.067 10.563 18.104 10.589 18.24 10.712 C 18.418 10.872 18.402 10.898 18.391 10.497 C 18.383 10.261 18.374 10.116 18.358 10.057 C 18.295 9.831 18.28 9.783 18.225 9.669 C 18.045 9.275 17.743 8.994 17.357 8.86 L 17.206 8.804 L 16.592 8.797 L 15.979 8.788 L 15.986 8.573 C 15.994 8.289 15.994 7.728 15.985 7.439 L 15.977 7.208 L 16.798 7.204 C 17.5 7.2 17.631 7.204 17.708 7.224 C 17.94 7.289 18.096 7.377 18.288 7.552 L 18.394 7.651 L 18.394 7.379 C 18.394 7.055 18.378 6.911 18.312 6.698 C 18.181 6.266 17.924 5.944 17.556 5.745 C 17.316 5.616 17.302 5.613 16.479 5.607 C 15.997 5.604 15.745 5.596 15.733 5.585 C 15.721 5.574 15.712 5.556 15.712 5.541 C 15.712 5.526 15.685 5.41 15.648 5.285 C 15.217 3.764 14.414 2.555 13.238 1.659 C 13.078 1.536 12.686 1.277 12.528 1.188 C 12.467 1.153 12.401 1.117 12.384 1.106 C 12.307 1.063 11.864 0.846 11.753 0.8 C 11.687 0.771 11.601 0.734 11.562 0.719 C 10.913 0.438 9.824 0.171 8.992 0.088 C 8.856 0.075 8.676 0.055 8.593 0.048 C 8.218 0.006 7.697 0 4.741 0 C 2.243 0 1.615 0.006 1.624 0.018 Z M 7.708 0.815 C 8.33 0.852 8.712 0.9 9.16 1.008 C 10.525 1.332 11.485 2.016 12.182 3.16 C 12.246 3.267 12.519 3.823 12.559 3.935 C 12.752 4.456 12.846 4.765 12.929 5.173 C 12.949 5.272 12.977 5.405 12.99 5.467 C 13.003 5.528 13.008 5.585 13.003 5.591 C 12.993 5.598 11.146 5.602 8.895 5.6 L 4.801 5.596 L 4.796 3.232 C 4.794 1.933 4.796 0.854 4.801 0.833 L 4.809 0.798 L 6.117 0.798 C 6.834 0.798 7.552 0.806 7.708 0.815 Z M 13.181 7.259 C 13.194 7.338 13.194 8.681 13.181 8.747 L 13.17 8.797 L 8.985 8.793 L 4.801 8.788 L 4.798 8.008 C 4.794 7.579 4.798 7.222 4.801 7.215 C 4.807 7.206 6.59 7.2 8.99 7.2 L 13.17 7.2 Z M 12.993 10.418 C 13.003 10.445 12.958 10.672 12.868 11.04 C 12.765 11.454 12.625 11.871 12.484 12.18 C 12.414 12.338 12.239 12.681 12.197 12.745 C 12.177 12.774 12.118 12.868 12.066 12.951 C 11.735 13.47 11.262 13.943 10.723 14.292 C 10.526 14.417 10.122 14.631 10.013 14.664 C 9.991 14.669 9.967 14.68 9.958 14.688 C 9.945 14.699 9.778 14.761 9.583 14.831 C 9.224 14.958 8.541 15.096 7.993 15.153 C 7.638 15.188 7.581 15.19 6.214 15.19 L 4.8 15.19 L 4.8 10.416 L 8.863 10.409 C 11.098 10.405 12.94 10.399 12.955 10.396 C 12.971 10.394 12.988 10.405 12.993 10.418 Z" fill="rgb(255, 255, 255)" opacity="0.5"></path></svg>