<svg width="172" height="40" viewBox="0 0 172 40" fill="none" xmlns="http://www.w3.org/2000/svg">
<path fill-rule="evenodd" clip-rule="evenodd" d="M20.0168 32.0114V40C8.96358 40 0 31.04 0 20C0 8.96 8.96358 0 20.0168 0V7.98857C13.394 7.98857 7.993 13.3714 7.993 20C7.993 26.6286 13.3826 32.0114 20.0168 32.0114Z" fill="white"/>
<path fill-rule="evenodd" clip-rule="evenodd" d="M28.0213 7.98857V16H36.0371V7.98857H44.0415V16L36.0371 23.9886H44.0415V32H36.0371V23.9886H28.0213V32H20.0168V23.9886L28.0213 16H20.0168V7.98857H28.0213Z" fill="white"/>
<path d="M57.321 25.6074C56.9374 25.6074 56.5848 25.514 56.2633 25.3274C55.9419 25.1407 55.6878 24.8867 55.5012 24.5652C55.3145 24.2438 55.2212 23.8912 55.2212 23.5075V16.508C55.2212 16.1244 55.3145 15.7718 55.5012 15.4503C55.6878 15.1289 55.9419 14.8748 56.2633 14.6882C56.5848 14.5015 56.9374 14.4082 57.321 14.4082H66.3893V16.2903H57.6477C57.4818 16.2903 57.347 16.3421 57.2433 16.4458C57.1396 16.5391 57.0877 16.6688 57.0877 16.8347V23.1809C57.0877 23.3468 57.1396 23.4816 57.2433 23.5853C57.347 23.6786 57.4818 23.7253 57.6477 23.7253H66.3893V25.6074H57.321Z" fill="white"/>
<path d="M70.5153 25.6074V14.4082H72.3818V19.0745H80.0968V14.4082H81.9634V25.6074H80.0968V20.941H72.3818V25.6074H70.5153Z" fill="white"/>
<path d="M86.2499 25.6074V16.508C86.2499 16.1244 86.3433 15.7718 86.5299 15.4503C86.7166 15.1289 86.9706 14.8748 87.2921 14.6882C87.6135 14.5015 87.9661 14.4082 88.3498 14.4082H95.3493C95.7329 14.4082 96.0803 14.5015 96.3914 14.6882C96.7129 14.8748 96.9669 15.1289 97.1536 15.4503C97.3506 15.7718 97.4491 16.1244 97.4491 16.508V25.6074H95.567V21.7654H88.1165V25.6074H86.2499ZM88.1165 19.8989H95.567V16.5703C95.567 16.4873 95.5359 16.4199 95.4737 16.368C95.4218 16.3162 95.3596 16.2903 95.287 16.2903H88.3964C88.3238 16.2903 88.2564 16.3162 88.1942 16.368C88.1424 16.4199 88.1165 16.4873 88.1165 16.5703V19.8989Z" fill="white"/>
<path d="M101.726 25.6074V14.3926H103.592V23.7253H112.925V25.6074H101.726Z" fill="white"/>
<path d="M116.336 25.6074V14.3926H118.202V23.7253H127.535V25.6074H116.336Z" fill="white"/>
<path d="M130.962 25.6074V14.4082H141.243V16.2903H132.844V19.0745H139.61V20.941H132.844V23.7253H141.243V25.6074H130.962Z" fill="white"/>
<path d="M145.172 25.6074V25.1718L149.497 20.0078L145.172 14.8437V14.4082H147.257L150.741 18.5301L154.21 14.4082H156.294V14.8437L151.954 20.0078L156.294 25.1563V25.6074H154.21L150.725 21.4854L147.257 25.6074H145.172Z" fill="white"/>
<path d="M160.471 25.6074V16.508C160.471 16.1244 160.564 15.7718 160.751 15.4503C160.937 15.1289 161.191 14.8748 161.513 14.6882C161.834 14.5015 162.187 14.4082 162.57 14.4082H169.57C169.954 14.4082 170.301 14.5015 170.612 14.6882C170.934 14.8748 171.188 15.1289 171.374 15.4503C171.571 15.7718 171.67 16.1244 171.67 16.508V25.6074H169.788V21.7654H162.337V25.6074H160.471ZM162.337 19.8989H169.788V16.5703C169.788 16.4873 169.757 16.4199 169.694 16.368C169.642 16.3162 169.58 16.2903 169.508 16.2903H162.617C162.545 16.2903 162.477 16.3162 162.415 16.368C162.363 16.4199 162.337 16.4873 162.337 16.5703V19.8989Z" fill="white"/>
</svg>
