<svg xmlns="http://www.w3.org/2000/svg" width="14.039" height="18.05" fill="none"><g><path d="M 2.194 13.086 C 2.194 10.345 4.354 8.122 7.019 8.122 C 9.685 8.122 11.845 10.345 11.845 13.086 C 11.845 15.828 9.685 18.05 7.019 18.05 C 4.354 18.05 2.194 15.828 2.194 13.086 Z" fill="transparent" stroke-width="1.5" stroke="rgb(101, 104, 115)" stroke-miterlimit="10" stroke-dasharray=""></path><path d="M 6.142 8.123 L 1.922 6.263 C 1.092 5.896 0.676 5.713 0.407 5.381 C 0.323 5.277 0.251 5.164 0.191 5.044 C 0 4.657 0 4.193 0 3.263 C 0 1.896 0 1.212 0.342 0.735 C 0.447 0.588 0.572 0.459 0.714 0.351 C 1.179 0 1.843 0 3.173 0 L 10.866 0 C 12.195 0 12.86 0 13.325 0.352 C 13.467 0.46 13.593 0.589 13.698 0.735 C 14.039 1.213 14.039 1.896 14.039 3.263 C 14.039 4.193 14.039 4.658 13.848 5.044 C 13.788 5.164 13.716 5.277 13.632 5.381 C 13.362 5.713 12.947 5.896 12.116 6.262 L 7.897 8.123 M 7.019 8.123 L 7.019 0" fill="transparent" stroke-width="1.5" stroke="rgb(101, 104, 115)" stroke-linecap="round" stroke-linejoin="round" stroke-dasharray=""></path><path d="M 5.703 13.086 C 5.703 12.339 6.293 11.732 7.019 11.732 C 7.746 11.732 8.336 12.339 8.336 13.086 C 8.336 13.834 7.746 14.44 7.019 14.44 C 6.293 14.44 5.703 13.834 5.703 13.086 Z" fill="transparent" stroke-width="1.5" stroke="rgb(101, 104, 115)" stroke-miterlimit="10" stroke-dasharray=""></path></g></svg>