<svg width="270" height="270" viewBox="0 0 270 270" fill="none" xmlns="http://www.w3.org/2000/svg">
<circle cx="135" cy="135" r="135" fill="url(#paint0_linear_669_166)"/>
<path d="M100.628 163.797C100.628 144.36 116.014 128.596 134.996 128.596C153.986 128.596 169.372 144.36 169.372 163.797C169.372 183.242 153.986 198.999 134.996 198.999C116.014 198.999 100.628 183.242 100.628 163.797Z" stroke="#656873" stroke-width="8" stroke-miterlimit="10"/>
<path d="M128.75 128.604L98.6904 115.414C92.7783 112.811 89.8152 111.513 87.8991 109.159C87.3007 108.421 86.7879 107.62 86.3605 106.769C85 104.025 85 100.734 85 94.1393C85 84.4453 85 79.5948 87.4361 76.2122C88.184 75.1698 89.0744 74.255 90.0858 73.4891C93.398 71 98.1277 71 107.601 71H162.399C171.865 71 176.602 71 179.914 73.4962C180.926 74.262 181.823 75.1768 182.571 76.2122C185 79.6019 185 84.4453 185 94.1393C185 100.734 185 104.032 183.64 106.769C183.212 107.62 182.699 108.421 182.101 109.159C180.178 111.513 177.222 112.811 171.302 115.406L141.25 128.604M134.996 128.604V71" stroke="#656873" stroke-width="8" stroke-linecap="round" stroke-linejoin="round"/>
<path d="M125.623 163.799C125.623 158.502 129.825 154.197 134.996 154.197C140.175 154.197 144.377 158.502 144.377 163.799C144.377 169.103 140.175 173.401 134.996 173.401C129.825 173.401 125.623 169.103 125.623 163.799Z" stroke="#656873" stroke-width="8" stroke-miterlimit="10"/>
<defs>
<linearGradient id="paint0_linear_669_166" x1="135" y1="0" x2="135" y2="270" gradientUnits="userSpaceOnUse">
<stop stop-color="white" stop-opacity="0.15"/>
<stop offset="1" stop-color="white" stop-opacity="0"/>
</linearGradient>
</defs>
</svg>
